
nColumns=19
nRows=29
DataType=double
version=3
OpenSimVersion=4.4-2022-10-11-798caa840
endheader
time	ground_force_calcn_r_vx	ground_force_calcn_r_vy	ground_force_calcn_r_vz	ground_force_calcn_r_px	ground_force_calcn_r_py	ground_force_calcn_r_pz	ground_force_calcn_r_mx	ground_force_calcn_r_my	ground_force_calcn_r_mz	ground_force_calcn_l_vx	ground_force_calcn_l_vy	ground_force_calcn_l_vz	ground_force_calcn_l_px	ground_force_calcn_l_py	ground_force_calcn_l_pz	ground_force_calcn_l_mx	ground_force_calcn_l_my	ground_force_calcn_l_mz
2.44	-4.09727	3.2551	-0.11678	0.982177	0	-0.411209	6.82883e-07	-5.4252e-07	1.94634e-08	81.70650000000001	721.655	27.8406	0.511724	0	-0.578084	-0.391175	-3.45497	-0.133289
2.445	-6.56995	6.12047	-0.302456	0.9845930000000001	0	-0.411102	4.634e-06	-4.31696e-06	2.13331e-07	85.7488	722.2	24.6341	0.512984	0	-0.576929	-0.354338	-2.98433	-0.101795
2.45	-10.4328	11.4007	-1.07296	0.985796	0	-0.410945	3.82433e-05	-4.17911e-05	3.9331e-06	89.8411	721.299	23.9636	0.514346	0	-0.575862	-0.328461	-2.63709	-0.0876117
2.455	-3.57071	20.3476	-1.93624	0.985039	0	-0.410938	9.044559999999999e-05	-0.000515402	4.90447e-05	94.075	718.271	24.7072	0.515777	0	-0.57498	-0.324415	-2.47694	-0.0852024
2.46	7.93081	32.6967	-2.42811	0.985134	0	-0.410954	-0.000447088	-0.00184323	0.000136881	97.9332	712.573	24.2432	0.517303	0	-0.574137	-0.327426	-2.38239	-0.0810538
2.465	15.8569	51.7459	-2.69636	0.985834	0	-0.410878	-0.00192718	-0.00628897	0.000327703	101.728	704.472	23.6829	0.518965	0	-0.573193	-0.326145	-2.25858	-0.0759288
2.47	19.3049	90.58629999999999	-2.46976	0.986675	0	-0.410686	-0.00480515	-0.0225477	0.000614743	105.656	693.473	23.1064	0.520827	0	-0.57198	-0.304734	-2.00011	-0.06664340000000001
2.475	19.7636	148.36	-1.10496	0.98781	0	-0.410341	-0.0101849	-0.076455	0.000569424	109.242	679.085	21.7174	0.522915	0	-0.570423	-0.247921	-1.54117	-0.0492871
2.48	19.3714	208.825	1.21391	0.9896509999999999	0	-0.409797	-0.0212735	-0.229329	-0.0013331	112.515	661.1900000000001	20.0651	0.52523	0	-0.5686020000000001	-0.164367	-0.965892	-0.0293118
2.485	18.1212	259.862	3.97475	0.9925310000000001	0	-0.409183	-0.0417043	-0.598048	-0.009147509999999999	115.39	639.389	18.3427	0.5278040000000001	0	-0.5665519999999999	-0.0701932	-0.388948	-0.0111581
2.49	13.2739	298.893	6.82676	0.996909	0	-0.408901	-0.0622525	-1.40176	-0.0320165	117.41	612.576	16.3853	0.530704	0	-0.564291	0.0161853	0.0844453	0.00225876
2.495	5.71037	330.438	10.5032	1.00398	0	-0.409196	-0.0492282	-2.84865	-0.090546	118.532	578.566	14.0172	0.533986	0	-0.561931	0.0803599	0.392244	0.009503080000000001
2.5	-3.82478	359.706	13.5006	1.01419	0	-0.409624	0.0489298	-4.60167	-0.172711	119.396	536.228	11.9014	0.5377	0	-0.55959	0.121039	0.54361	0.0120653
2.505	-14.5813	384.572	13.8051	1.02554	0	-0.40985	0.227807	-6.00826	-0.215681	119.207	487.159	9.68956	0.541828	0	-0.557442	0.144288	0.589661	0.0117283
2.51	-24.6926	406.023	13.38	1.03763	0	-0.410677	0.437006	-7.18572	-0.236797	115.707	432.213	7.11993	0.546427	0	-0.555664	0.155909	0.582382	0.00959369
2.515	-35.0514	425.699	11.6115	1.04917	0	-0.412294	0.641938	-7.79632	-0.212655	109.482	369.318	5.10349	0.551745	0	-0.554401	0.168171	0.567296	0.0078393
2.52	-43.6248	439.064	7.90544	1.05826	0	-0.41385	0.768182	-7.73141	-0.139205	103.65	300.209	2.58135	0.55884	0	-0.552822	0.147449	0.427067	0.00367214
2.525	-50.63	447.769	3.84543	1.0654	0	-0.414989	0.8330610000000001	-7.36755	-0.06327240000000001	96.4431	239.262	0.611932	0.567431	0	-0.5501	0.0785101	0.194772	0.000498147
2.53	-56.9767	454.118	-0.570674	1.07059	0	-0.415587	0.840946	-6.70253	0.008422850000000001	86.5479	201.333	-2.24586	0.572906	0	-0.544601	0.0184491	0.0429174	-0.000478742
2.535	-61.771	459.803	-5.34113	1.07397	0	-0.415631	0.7894370000000001	-5.87632	0.0682599	78.4706	182.173	-3.22198	0.574253	0	-0.54252	-0.00101481	-0.00235591	4.16676e-05
2.54	-65.89490000000001	465.29	-9.525309999999999	1.07636	0	-0.415239	0.722007	-5.09816	0.104368	73.1679	172.339	-3.80308	0.5747640000000001	0	-0.542512	-6.21984e-05	-0.000146501	3.23291e-06
2.545	-69.4941	470.968	-13.3921	1.07847	0	-0.414606	0.659725	-4.47102	0.127135	64.6885	169.022	-4.89993	0.575271	0	-0.54243	-2.66284e-05	-6.957630000000001e-05	2.01701e-06
2.55	-72.23609999999999	477.531	-17.0406	1.08046	0	-0.413814	0.604158	-3.99391	0.142522	54.1303	168.243	-5.07858	0.575832	0	-0.54232	-2.61362e-05	-8.12341e-05	2.45213e-06
2.555	-74.0984	486.421	-20.3789	1.08234	0	-0.412867	0.559881	-3.67535	0.153981	44.1691	165.767	-4.65832	0.5765400000000001	0	-0.542208	-1.64166e-05	-6.16116e-05	1.73138e-06
2.56	-75.139	499.745	-23.601	1.08404	0	-0.411732	0.5194	-3.4545	0.163143	36.0847	157.581	-4.00209	0.577424	0	-0.542099	-2.17835e-06	-9.51283e-06	2.41597e-07
2.565	-75.4097	517.545	-26.8877	1.08562	0	-0.41049	0.458417	-3.14617	0.163451	29.1555	141.488	-3.66935	0.578466	0	-0.541998	-3.30525e-08	-1.604e-07	4.15981e-09
2.57	-74.9532	536.797	-30.0342	1.08724	0	-0.409246	0.390299	-2.79523	0.156395	22.4089	117.744	-3.00643	0.57965	0	-0.541882	-5.58065e-11	-2.93227e-10	7.48711e-12
2.575	-73.9868	555.756	-32.7904	1.08891	0	-0.408057	0.327935	-2.4633	0.145338	16.0205	89.01349999999999	-2.56661	0.580979	0	-0.541755	-2.51619e-14	-1.39805e-13	4.03114e-15
2.58	-72.5711	575.519	-35.4771	1.09045	0	-0.406922	0.253418	-2.00971	0.123886	8.50737	59.7741	-2.85022	0.582386	0	-0.5416260000000001	-5.00143e-16	-3.51409e-15	1.67563e-16
